<?xml version="1.0" encoding="UTF-8" standalone="no"?>
<!-- Generator: Adobe Illustrator 13.0.2, SVG Export Plug-In . SVG Version: 6.00 Build 14948)  -->

<svg
   xmlns:dc="http://purl.org/dc/elements/1.1/"
   xmlns:cc="http://creativecommons.org/ns#"
   xmlns:rdf="http://www.w3.org/1999/02/22-rdf-syntax-ns#"
   xmlns:svg="http://www.w3.org/2000/svg"
   xmlns="http://www.w3.org/2000/svg"
   xmlns:sodipodi="http://sodipodi.sourceforge.net/DTD/sodipodi-0.dtd"
   xmlns:inkscape="http://www.inkscape.org/namespaces/inkscape"
   version="1.1"
   x="0px"
   y="0px"
   width="1514.1566"
   height="1514.1873"
   viewBox="0 0 1514.1566 1514.1873"
   enable-background="new 0 0 98.586 98.609"
   xml:space="preserve"
   id="svg3093"
   inkscape:version="0.48.2 r9819"
   sodipodi:docname="clojure-glyph.svg"><metadata
   id="metadata3129"><rdf:RDF><cc:Work
       rdf:about=""><dc:format>image/svg+xml</dc:format><dc:type
         rdf:resource="http://purl.org/dc/dcmitype/StillImage" /></cc:Work></rdf:RDF></metadata><defs
   id="defs3127"><filter
     id="filter3159"
     inkscape:label="Drop shadow"
     width="1.5"
     height="1.5"
     x="-0.25"
     y="-0.25"
     color-interpolation-filters="sRGB"><feGaussianBlur
       id="feGaussianBlur3161"
       in="SourceAlpha"
       stdDeviation="8"
       result="blur" /><feColorMatrix
       id="feColorMatrix3163"
       result="bluralpha"
       type="matrix"
       values="1 0 0 0 0 0 1 0 0 0 0 0 1 0 0 0 0 0 0.5 0 " /><feOffset
       id="feOffset3165"
       in="bluralpha"
       dx="4"
       dy="4"
       result="offsetBlur" /><feMerge
       id="feMerge3167"><feMergeNode
         id="feMergeNode3169"
         in="offsetBlur" /><feMergeNode
         id="feMergeNode3171"
         in="SourceGraphic" /></feMerge></filter></defs><sodipodi:namedview
   pagecolor="#ffffff"
   bordercolor="#666666"
   borderopacity="1"
   objecttolerance="10"
   gridtolerance="10"
   guidetolerance="10"
   inkscape:pageopacity="0"
   inkscape:pageshadow="2"
   inkscape:window-width="1366"
   inkscape:window-height="744"
   id="namedview3125"
   showgrid="false"
   fit-margin-top="0"
   fit-margin-left="0"
   fit-margin-right="0"
   fit-margin-bottom="0"
   inkscape:zoom="0.37838838"
   inkscape:cx="29.912829"
   inkscape:cy="714.79567"
   inkscape:window-x="0"
   inkscape:window-y="24"
   inkscape:window-maximized="1"
   inkscape:current-layer="svg3093" />
<g
   id="to_circ._w_x2F__back._circ."
   display="none"
   style="display:none"
   transform="translate(738.8124,615.93577)">
	<circle
   display="inline"
   cx="49.316002"
   cy="49.32"
   r="44.568001"
   id="circle3096"
   sodipodi:cx="49.316002"
   sodipodi:cy="49.32"
   sodipodi:rx="44.568001"
   sodipodi:ry="44.568001"
   style="fill:#ffffff;display:inline"
   d="m 93.884003,49.32 c 0,24.614227 -19.953774,44.568 -44.568001,44.568 -24.614227,0 -44.5680009,-19.953773 -44.5680009,-44.568 0,-24.614227 19.9537739,-44.5680011 44.5680009,-44.5680011 24.614227,0 44.568001,19.9537741 44.568001,44.5680011 z" />
	<path
   display="inline"
   d="m 49.315,72.884 c 2.598,-0.005 5.094,-0.434 7.43,-1.211 -0.549,-0.502 -1.073,-1.037 -1.55,-1.64 -3.167,-4.039 -4.935,-9.958 -7.73,-19.91 -0.443,0.96 -0.932,2.038 -1.438,3.187 -1.79,4.056 -3.771,8.989 -4.496,12.15 -0.26,1.126 -0.421,2.521 -0.418,4.067 0,0.612 0.034,1.255 0.085,1.91 2.53,0.932 5.263,1.442 8.117,1.447 z"
   id="path3098"
   inkscape:connector-curvature="0"
   style="fill:#91dc47;display:inline" />
	<path
   display="inline"
   d="m 25.353,19.813 c 5.181,0.015 9.254,1.621 11.208,2.72 0.472,0.272 0.919,0.565 1.359,0.866 3.487,-1.536 7.34,-2.395 11.395,-2.395 15.64,0.002 28.317,12.676 28.319,28.315 h -0.002 c 0,7.886 -3.225,15.015 -8.424,20.148 1.276,0.143 2.638,0.231 4.027,0.225 4.936,0.002 10.271,-1.087 14.271,-4.451 2.607,-2.197 4.793,-5.414 6.005,-10.237 0.237,-1.862 0.373,-3.757 0.373,-5.684 0,-24.614 -19.953,-44.571 -44.568,-44.571 -14.926,0 -28.129,7.347 -36.218,18.613 4.209,-2.628 8.505,-3.582 12.255,-3.549 z"
   id="path3100"
   inkscape:connector-curvature="0"
   style="fill:#5881d8;display:inline" />
	<path
   display="inline"
   d="m 73.623,76.563 c -1.347,0 -2.61,-0.072 -3.78,-0.215 -3.121,-0.392 -5.697,-0.863 -7.95,-1.658 -3.79,1.882 -8.059,2.945 -12.577,2.945 C 33.678,77.635 21.001,64.96 21,49.319 21.001,40.832 24.74,33.224 30.654,28.034 29.073,27.653 27.423,27.429 25.737,27.432 17.429,27.511 8.658,32.108 5.008,44.525 4.84,46.1 4.748,47.699 4.748,49.319 c 0,24.615 19.955,44.57 44.568,44.57 15.073,0 28.389,-7.49 36.455,-18.944 -4.362,1.087 -8.557,1.607 -12.148,1.618 z"
   id="path3102"
   inkscape:connector-curvature="0"
   style="fill:#63b132;display:inline" />
	<path
   display="inline"
   d="m 44.906,42.911 c -1.505,-3.778 -3.68,-8.166 -5.62,-10.153 -0.988,-1.038 -2.189,-1.936 -3.515,-2.701 -6.05,4.263 -10.007,11.293 -10.022,19.262 0.015,7.85 3.854,14.789 9.751,19.07 1.446,-6.025 5.072,-11.542 10.508,-22.6 -0.322,-0.887 -0.69,-1.858 -1.102,-2.878 z"
   id="path3104"
   inkscape:connector-curvature="0"
   style="fill:#91dc47;display:inline" />
	<path
   display="inline"
   d="m 61.467,67.711 c 0.274,0.137 0.898,0.359 1.767,0.605 5.841,-4.287 9.636,-11.193 9.65,-18.998 H 72.882 C 72.86,36.307 62.33,25.779 49.315,25.754 c -2.586,0.005 -5.072,0.431 -7.399,1.203 4.785,5.454 7.086,13.249 9.312,21.775 10e-4,0.003 0.003,0.006 0.004,0.01 0.004,0.006 0.712,2.368 1.927,5.5 1.207,3.128 2.927,7 4.802,9.821 1.23,1.891 2.584,3.249 3.506,3.648 z"
   id="path3106"
   inkscape:connector-curvature="0"
   style="fill:#90b4fe;display:inline" />
	<path
   display="inline"
   d="m 93.511,55.003 c -1.212,4.823 -3.397,8.04 -6.005,10.237 -4,3.364 -9.335,4.453 -14.271,4.451 -1.39,0.007 -2.751,-0.082 -4.027,-0.225 5.199,-5.134 8.424,-12.263 8.424,-20.148 h 0.002 C 77.632,33.679 64.954,21.005 49.315,21.003 c -4.055,0 -7.908,0.859 -11.395,2.395 -0.439,-0.301 -0.887,-0.594 -1.359,-0.866 -1.954,-1.099 -6.027,-2.705 -11.208,-2.72 -3.75,-0.034 -8.046,0.92 -12.255,3.548 -4.372,6.089 -7.251,13.319 -8.09,21.164 3.651,-12.417 12.421,-17.015 20.729,-17.093 1.685,-0.003 3.335,0.22 4.917,0.602 C 24.739,33.224 21,40.832 21,49.319 c 0.002,15.642 12.678,28.316 28.315,28.316 4.519,0 8.787,-1.063 12.577,-2.945 2.253,0.795 4.829,1.267 7.95,1.658 1.17,0.143 2.434,0.215 3.78,0.215 3.592,-0.011 7.786,-0.531 12.148,-1.617 4.075,-5.786 6.804,-12.583 7.741,-19.943 z M 25.75,49.319 c 0.015,-7.968 3.973,-14.999 10.022,-19.262 1.326,0.766 2.526,1.663 3.515,2.701 1.94,1.987 4.114,6.375 5.62,10.153 0.412,1.02 0.78,1.991 1.103,2.878 -5.436,11.058 -9.062,16.575 -10.508,22.6 -5.898,-4.281 -9.737,-11.221 -9.752,-19.07 z m 23.565,23.565 c -2.854,-0.005 -5.587,-0.516 -8.117,-1.446 -0.052,-0.655 -0.085,-1.298 -0.085,-1.91 -0.002,-1.547 0.159,-2.941 0.418,-4.067 0.724,-3.161 2.706,-8.095 4.496,-12.15 0.506,-1.148 0.995,-2.227 1.438,-3.187 2.796,9.952 4.563,15.871 7.73,19.91 0.477,0.603 1.001,1.138 1.55,1.64 -2.336,0.777 -4.832,1.205 -7.43,1.21 z M 63.234,68.317 C 62.366,68.071 61.742,67.848 61.467,67.712 60.545,67.313 59.191,65.954 57.96,64.063 56.085,61.242 54.365,57.37 53.158,54.242 51.943,51.11 51.235,48.749 51.231,48.742 51.23,48.739 51.228,48.736 51.227,48.732 49.001,40.206 46.7,32.411 41.915,26.957 c 2.327,-0.771 4.812,-1.198 7.399,-1.203 13.016,0.025 23.546,10.553 23.568,23.565 h 0.002 c -0.014,7.805 -3.809,14.711 -9.65,18.998 z"
   id="path3108"
   inkscape:connector-curvature="0"
   style="fill:#ffffff;display:inline" />
</g>
<g
   id="w_x2F__circle"
   transform="matrix(4.6304169,0,0,4.6304169,528.72233,528.72379)"
   style="filter:url(#filter3159);opacity:0.25">
	<path
   d="M 49.316,98.639 C 22.123,98.639 -0.002,76.515 -0.002,49.319 -0.002,22.125 22.123,0 49.316,0 76.51,0 98.635,22.125 98.635,49.319 c 0,27.196 -22.125,49.32 -49.319,49.32 l 0,0 z"
   id="path3111"
   inkscape:connector-curvature="0"
   style="fill:none" />
	<path
   d="m 40.25,72.155 0.601,0.222 c 2.711,0.997 5.559,1.503 8.462,1.507 2.639,-0.004 5.245,-0.427 7.747,-1.26 l 1.619,-0.539 -1.261,-1.148 c -0.569,-0.522 -1.04,-1.02 -1.44,-1.523 -3.055,-3.898 -4.775,-9.679 -7.55,-19.559 l -0.734,-2.611 -1.138,2.462 c -0.445,0.964 -0.937,2.048 -1.446,3.204 -1.341,3.043 -3.72,8.692 -4.554,12.328 -0.292,1.271 -0.445,2.756 -0.443,4.294 0,0.587 0.027,1.237 0.087,1.985 l 0.05,0.638 z"
   id="path3113"
   inkscape:connector-curvature="0"
   style="fill:#91dc47" />
	<path
   d="m 25.164,20.812 h 0.18 c 5.706,0.019 9.652,1.99 10.728,2.595 0.441,0.253 0.866,0.531 1.285,0.816 l 0.458,0.315 0.508,-0.224 c 3.486,-1.534 7.183,-2.311 10.993,-2.311 15.062,0.002 27.318,12.257 27.32,27.317 -0.002,7.357 -2.889,14.261 -8.129,19.436 l -1.49,1.472 2.081,0.232 c 1.376,0.155 2.722,0.234 4.002,0.234 l 0.142,-0.002 c 4.265,0 10.303,-0.812 14.909,-4.687 1.725,-1.454 3.135,-3.207 4.25,-5.261 0.965,-3.646 1.484,-7.475 1.484,-11.425 0,-24.614 -19.953,-44.571 -44.568,-44.571 -15.906,0 -29.857,8.341 -37.744,20.88 5.183,-4.013 10.325,-4.816 13.591,-4.816 z"
   id="path3115"
   inkscape:connector-curvature="0"
   style="fill:#5881d8" />
	<path
   d="m 73.62,75.564 c -1.295,0 -2.526,-0.07 -3.658,-0.209 -3.461,-0.436 -5.776,-0.916 -7.736,-1.608 l -0.4,-0.141 -0.379,0.188 C 57.652,75.678 53.571,76.635 49.316,76.635 34.257,76.635 22.002,64.38 22,49.32 22,41.463 25.395,33.979 31.314,28.787 l 1.451,-1.272 -1.876,-0.452 c -1.73,-0.417 -3.449,-0.63 -5.104,-0.63 -8.949,0.083 -16.03,4.915 -19.975,13.235 -0.687,3.109 -1.061,6.336 -1.061,9.652 0,24.615 19.955,44.57 44.568,44.57 15.622,0 29.357,-8.044 37.314,-20.209 -4.623,1.258 -9.131,1.87 -13.011,1.883 z"
   id="path3117"
   inkscape:connector-curvature="0"
   style="fill:#63b132" />
	<path
   d="m 61.069,68.627 c 0.323,0.163 1.031,0.408 1.894,0.65 l 0.471,0.133 0.392,-0.288 C 70.11,64.511 73.872,57.107 73.885,49.321 73.858,35.8 62.838,24.78 49.317,24.755 h -0.002 -0.002 c -2.62,0.004 -5.215,0.425 -7.712,1.252 l -1.432,0.475 0.995,1.134 c 4.63,5.274 6.858,12.798 9.097,21.368 l 0.006,0.021 0.027,0.085 c 0.244,0.787 0.92,2.901 1.934,5.515 0.905,2.345 2.746,6.768 4.899,10.011 1.305,2.005 2.779,3.508 3.942,4.011 z"
   id="path3119"
   inkscape:connector-curvature="0"
   style="fill:#90b4fe" />
	<path
   d="m 46.907,46.231 0.188,-0.384 -0.147,-0.4 c -0.326,-0.897 -0.699,-1.88 -1.113,-2.91 -0.713,-1.785 -3.239,-7.82 -5.834,-10.479 -0.995,-1.049 -2.253,-2.017 -3.729,-2.868 l -0.553,-0.319 -0.522,0.369 c -6.526,4.599 -10.431,12.104 -10.446,20.076 0.013,7.839 3.813,15.271 10.162,19.88 l 1.213,0.881 0.348,-1.454 c 0.976,-4.062 2.955,-7.857 5.95,-13.603 1.318,-2.527 2.814,-5.394 4.483,-8.789 z"
   id="path3121"
   inkscape:connector-curvature="0"
   style="fill:#91dc47" />
	<path
   d="M 49.316,0 C 22.123,0 -0.002,22.125 -0.002,49.319 c 0,27.196 22.125,49.32 49.318,49.32 27.194,0 49.319,-22.124 49.319,-49.32 C 98.635,22.125 76.51,0 49.316,0 z m 0,4.749 c 24.615,0 44.568,19.957 44.568,44.571 0,1.927 -0.136,3.821 -0.373,5.684 -1.212,4.823 -3.397,8.04 -6.005,10.237 -4,3.364 -9.335,4.453 -14.271,4.451 -1.39,0.007 -2.751,-0.082 -4.027,-0.225 5.199,-5.134 8.424,-12.263 8.424,-20.148 h 0.002 C 77.632,33.68 64.954,21.006 49.315,21.004 45.26,21.004 41.407,21.863 37.92,23.399 37.481,23.098 37.033,22.805 36.561,22.533 34.607,21.434 30.534,19.828 25.353,19.813 21.602,19.779 17.304,20.73 13.095,23.366 21.183,12.098 34.388,4.749 49.316,4.749 z M 41.531,65.46 c 0.724,-3.161 2.706,-8.095 4.496,-12.15 0.506,-1.148 0.995,-2.227 1.438,-3.187 2.796,9.952 4.563,15.871 7.73,19.91 0.477,0.603 1.001,1.138 1.55,1.64 -2.336,0.777 -4.832,1.206 -7.43,1.211 -2.854,-0.005 -5.587,-0.516 -8.117,-1.446 -0.052,-0.655 -0.085,-1.298 -0.085,-1.91 -0.003,-1.547 0.158,-2.942 0.418,-4.068 z m -6.03,2.929 C 29.604,64.108 25.765,57.168 25.75,49.319 25.765,41.351 29.723,34.32 35.772,30.057 c 1.326,0.766 2.526,1.663 3.515,2.701 1.94,1.987 4.114,6.375 5.62,10.153 0.412,1.02 0.78,1.991 1.103,2.878 -5.437,11.058 -9.063,16.575 -10.509,22.6 z M 53.159,54.241 c -1.215,-3.132 -1.923,-5.493 -1.927,-5.5 -10e-4,-0.003 -0.003,-0.006 -0.004,-0.01 -2.226,-8.526 -4.527,-16.321 -9.312,-21.775 2.327,-0.771 4.812,-1.198 7.399,-1.203 13.015,0.026 23.545,10.554 23.567,23.566 h 0.002 c -0.015,7.805 -3.81,14.711 -9.65,18.998 -0.868,-0.246 -1.492,-0.469 -1.767,-0.605 -0.922,-0.399 -2.276,-1.758 -3.507,-3.649 -1.875,-2.822 -3.594,-6.694 -4.801,-9.822 z M 49.316,93.89 C 24.703,93.89 4.748,73.935 4.748,49.32 c 0,-1.62 0.092,-3.219 0.26,-4.794 3.651,-12.417 12.421,-17.015 20.729,-17.093 1.685,-0.003 3.335,0.22 4.917,0.602 C 24.739,33.224 21,40.832 21,49.319 c 0.002,15.642 12.678,28.316 28.315,28.316 4.519,0 8.787,-1.063 12.577,-2.945 2.253,0.795 4.829,1.267 7.95,1.658 1.17,0.143 2.434,0.215 3.78,0.215 3.592,-0.011 7.786,-0.531 12.148,-1.618 C 77.706,86.4 64.39,93.89 49.316,93.89 z"
   id="path3123"
   inkscape:connector-curvature="0"
   style="fill:#ffffff" />
</g>
</svg>
